<mxfile host="app.diagrams.net" agent="Mozilla/5.0 (Windows NT 10.0; Win64; x64) AppleWebKit/537.36 (KHTML, like Gecko) Chrome/131.0.0.0 Safari/537.36" version="27.1.3">
  <diagram name="Page-1" id="ITz-KZOvTbslG7pBriLq">
    <mxGraphModel dx="715" dy="422" grid="1" gridSize="10" guides="1" tooltips="1" connect="1" arrows="1" fold="1" page="1" pageScale="1" pageWidth="850" pageHeight="1100" math="0" shadow="0">
      <root>
        <mxCell id="0" />
        <mxCell id="1" parent="0" />
        <mxCell id="t0Z2B24K9JFg9irQW1YI-1" value="&lt;h1 style=&quot;margin-top: 0px;&quot;&gt;&lt;font face=&quot;Comic Sans MS&quot; style=&quot;font-size: 36px;&quot;&gt;Kubernetes&lt;/font&gt;&lt;/h1&gt;&lt;p&gt;&lt;b&gt;&lt;font face=&quot;Comic Sans MS&quot;&gt;1- Ce que c&#39;est&amp;nbsp;&lt;/font&gt;&lt;/b&gt;&lt;/p&gt;&lt;p&gt;&lt;font face=&quot;Comic Sans MS&quot;&gt;Plateforme d&#39;orchestration (coordination, gestion) des applications conteneurisées. Il est contitué d&#39;un Controle Plan qui gère l&#39;ensemble de ses noeuds qui sont les lieux de stockage de nos conteneurs.&lt;/font&gt;&lt;/p&gt;&lt;p&gt;&lt;span style=&quot;background-color: transparent; color: light-dark(rgb(0, 0, 0), rgb(255, 255, 255));&quot;&gt;&lt;font face=&quot;Comic Sans MS&quot;&gt;Et une machine qui exécute Kubernetes est appelé Cluster.&lt;/font&gt;&lt;/span&gt;&lt;/p&gt;&lt;p&gt;&lt;span style=&quot;background-color: transparent; color: light-dark(rgb(0, 0, 0), rgb(255, 255, 255));&quot;&gt;&lt;font face=&quot;Comic Sans MS&quot;&gt;&lt;br&gt;&lt;/font&gt;&lt;/span&gt;&lt;/p&gt;&lt;p&gt;&lt;font face=&quot;Comic Sans MS&quot;&gt;2- &lt;b&gt;S&lt;/b&gt;&lt;b style=&quot;background-color: transparent; color: light-dark(rgb(0, 0, 0), rgb(255, 255, 255));&quot;&gt;es composants de bases et leurs fonctionnement&lt;/b&gt;&lt;/font&gt;&lt;/p&gt;&lt;p&gt;&lt;font face=&quot;Comic Sans MS&quot;&gt;Pour que Kub fasse bien l&#39;orchestration, les nœuds sont gérer par le Control Plane qui suit l&#39;état de chaque nœud pour veiller à ce qu&#39;ils travaillent en continue ?&lt;/font&gt;&lt;/p&gt;&lt;p&gt;&lt;font face=&quot;Comic Sans MS&quot;&gt;Certains noueds font partie du Control Planner( kube-apiserver, etcd,kube-scheduler, Kube-Controller-manager, Cloud-Controller-Manager) arrivent d&#39;office à la première utilisation du cluster et ensuite nous avons les noeuds que nous créons&amp;nbsp; pour faire tourner nos applications.&lt;/font&gt;&lt;/p&gt;&lt;p&gt;&lt;font face=&quot;Comic Sans MS&quot;&gt;Chaque nos exécutent des Workers nodes pour assurer son bon fonctionnement notamment au niveau de la communication avec l&#39;API Kubernetes et remonter l&#39;état d&#39;exécution du noeud au près du CP (&lt;span style=&quot;background-color: transparent; color: light-dark(rgb(0, 0, 0), rgb(255, 255, 255));&quot;&gt;Control Plane) avec le Kubelet ; pour veiller à ce que tous les noeuds soit sur le même réseau pour communiquer entre eux par le Kube-proxy et pour que les noeuds exécutent eux même les conteneurs contenant les application à faire tourner avec le Container Runtime.&lt;/span&gt;&lt;/font&gt;&lt;/p&gt;&lt;p&gt;&lt;span style=&quot;background-color: transparent; color: light-dark(rgb(0, 0, 0), rgb(255, 255, 255));&quot;&gt;&lt;font face=&quot;Comic Sans MS&quot;&gt;&lt;br&gt;&lt;/font&gt;&lt;/span&gt;&lt;/p&gt;&lt;p&gt;&lt;span style=&quot;background-color: transparent; color: light-dark(rgb(0, 0, 0), rgb(255, 255, 255));&quot;&gt;&lt;font face=&quot;Comic Sans MS&quot;&gt;Pour exécuter les différentes container à l&#39;intérieur de nos noeuds, on va les stocker à l&#39;interieurs des pods qui peuvent contenir plus container mais pour faciliter la gestion et limité la casse en cas de service down il est recommandé d&#39;avoir un micro-service par pod. Et chaque pod va avoir sa propre adresse ip.&lt;/font&gt;&lt;/span&gt;&lt;/p&gt;&lt;p&gt;&lt;span style=&quot;background-color: transparent; color: light-dark(rgb(0, 0, 0), rgb(255, 255, 255));&quot;&gt;&lt;font face=&quot;Comic Sans MS&quot;&gt;&lt;br&gt;&lt;/font&gt;&lt;/span&gt;&lt;/p&gt;&lt;p&gt;&lt;span style=&quot;background-color: transparent; color: light-dark(rgb(0, 0, 0), rgb(255, 255, 255));&quot;&gt;&lt;font face=&quot;Comic Sans MS&quot;&gt;Il peut arriver que des pods deviennent unitilisable et tombe c&#39;est la notion de service qui va gérer le réplication du pod à son dernière état fonctionnel et va lui réacffecté une adresse IP.&amp;nbsp; Il a une fonction qui utilise une communication par nom de service et non par adresse IP, ce qu&#39;il peut recréer un pod et lui attribuer le nom de service du précédent pod sans avoir à recréer une adresse IP.un état fonctionnel&lt;/font&gt;&lt;/span&gt;&lt;/p&gt;" style="text;html=1;whiteSpace=wrap;overflow=hidden;rounded=0;" vertex="1" parent="1">
          <mxGeometry x="30" y="40" width="420" height="940" as="geometry" />
        </mxCell>
        <mxCell id="t0Z2B24K9JFg9irQW1YI-48" value="" style="group" vertex="1" connectable="0" parent="1">
          <mxGeometry x="980" y="180" width="1110" height="530" as="geometry" />
        </mxCell>
        <mxCell id="t0Z2B24K9JFg9irQW1YI-27" value="" style="rounded=1;whiteSpace=wrap;html=1;fillColor=#fff2cc;strokeColor=#d6b656;" vertex="1" parent="t0Z2B24K9JFg9irQW1YI-48">
          <mxGeometry x="330" y="280" width="320" height="250" as="geometry" />
        </mxCell>
        <mxCell id="t0Z2B24K9JFg9irQW1YI-10" value="" style="edgeStyle=orthogonalEdgeStyle;curved=1;rounded=0;orthogonalLoop=1;jettySize=auto;html=1;" edge="1" parent="t0Z2B24K9JFg9irQW1YI-48" source="t0Z2B24K9JFg9irQW1YI-4" target="t0Z2B24K9JFg9irQW1YI-9">
          <mxGeometry relative="1" as="geometry" />
        </mxCell>
        <mxCell id="t0Z2B24K9JFg9irQW1YI-4" value="&lt;span style=&quot;font-size: 18px;&quot;&gt;Clusters.&lt;/span&gt;" style="shape=cube;whiteSpace=wrap;html=1;boundedLbl=1;backgroundOutline=1;darkOpacity=0.05;darkOpacity2=0.1;" vertex="1" parent="t0Z2B24K9JFg9irQW1YI-48">
          <mxGeometry y="406.47" width="120" height="80" as="geometry" />
        </mxCell>
        <mxCell id="t0Z2B24K9JFg9irQW1YI-31" style="edgeStyle=orthogonalEdgeStyle;curved=1;rounded=0;orthogonalLoop=1;jettySize=auto;html=1;" edge="1" parent="t0Z2B24K9JFg9irQW1YI-48" source="t0Z2B24K9JFg9irQW1YI-9">
          <mxGeometry relative="1" as="geometry">
            <mxPoint x="982.8071032072369" y="40" as="targetPoint" />
          </mxGeometry>
        </mxCell>
        <mxCell id="t0Z2B24K9JFg9irQW1YI-9" value="" style="ellipse;whiteSpace=wrap;html=1;" vertex="1" parent="t0Z2B24K9JFg9irQW1YI-48">
          <mxGeometry x="330" y="330" width="320" height="156.47058823529412" as="geometry" />
        </mxCell>
        <mxCell id="t0Z2B24K9JFg9irQW1YI-30" value="" style="group" vertex="1" connectable="0" parent="t0Z2B24K9JFg9irQW1YI-48">
          <mxGeometry x="380" y="340.88" width="220" height="179.12" as="geometry" />
        </mxCell>
        <mxCell id="t0Z2B24K9JFg9irQW1YI-33" style="edgeStyle=orthogonalEdgeStyle;curved=1;rounded=0;orthogonalLoop=1;jettySize=auto;html=1;" edge="1" parent="t0Z2B24K9JFg9irQW1YI-30" source="t0Z2B24K9JFg9irQW1YI-11">
          <mxGeometry relative="1" as="geometry">
            <mxPoint x="190" y="400.52355160361844" as="targetPoint" />
          </mxGeometry>
        </mxCell>
        <mxCell id="t0Z2B24K9JFg9irQW1YI-11" value="&lt;span style=&quot;font-weight: normal;&quot;&gt;Control Planer&lt;/span&gt;" style="text;html=1;align=center;verticalAlign=middle;whiteSpace=wrap;rounded=0;fontStyle=1;fontSize=16;fillColor=#fff2cc;strokeColor=#d6b656;gradientColor=#FFB570;" vertex="1" parent="t0Z2B24K9JFg9irQW1YI-30">
          <mxGeometry x="35" y="155.12058823529415" width="140" height="33.529411764705884" as="geometry" />
        </mxCell>
        <mxCell id="t0Z2B24K9JFg9irQW1YI-13" value="Noeuds" style="shape=process;whiteSpace=wrap;html=1;backgroundOutline=1;" vertex="1" parent="t0Z2B24K9JFg9irQW1YI-30">
          <mxGeometry y="22.64941176470586" width="80" height="61.470588235294116" as="geometry" />
        </mxCell>
        <mxCell id="t0Z2B24K9JFg9irQW1YI-20" value="Noeud" style="shape=process;whiteSpace=wrap;html=1;backgroundOutline=1;" vertex="1" parent="t0Z2B24K9JFg9irQW1YI-30">
          <mxGeometry x="100" y="69.12" width="50" height="30" as="geometry" />
        </mxCell>
        <mxCell id="t0Z2B24K9JFg9irQW1YI-21" value="Noeud" style="shape=process;whiteSpace=wrap;html=1;backgroundOutline=1;" vertex="1" parent="t0Z2B24K9JFg9irQW1YI-30">
          <mxGeometry x="170" y="33.825882352941164" width="50" height="50.294117647058826" as="geometry" />
        </mxCell>
        <mxCell id="t0Z2B24K9JFg9irQW1YI-25" value="Noeud" style="shape=process;whiteSpace=wrap;html=1;backgroundOutline=1;" vertex="1" parent="t0Z2B24K9JFg9irQW1YI-30">
          <mxGeometry x="110" width="50" height="33.83" as="geometry" />
        </mxCell>
        <mxCell id="t0Z2B24K9JFg9irQW1YI-28" value="&lt;span style=&quot;font-weight: 400;&quot;&gt;&lt;font style=&quot;font-size: 13px;&quot;&gt;Les noeuds&lt;/font&gt;&lt;/span&gt;" style="text;html=1;align=center;verticalAlign=middle;whiteSpace=wrap;rounded=0;fontStyle=1;fontSize=16;" vertex="1" parent="t0Z2B24K9JFg9irQW1YI-30">
          <mxGeometry x="60" y="119.12" width="90" height="20" as="geometry" />
        </mxCell>
        <mxCell id="t0Z2B24K9JFg9irQW1YI-32" value="" style="ellipse;whiteSpace=wrap;html=1;" vertex="1" parent="t0Z2B24K9JFg9irQW1YI-48">
          <mxGeometry x="990" width="120" height="80" as="geometry" />
        </mxCell>
      </root>
    </mxGraphModel>
  </diagram>
</mxfile>
